<svg viewBox="0 0 32 32" fill="none" xmlns="http://www.w3.org/2000/svg" id="Palm-Tree-Flat--Streamline-Fluent-Emoji" height="32" width="32"><desc>Palm Tree Flat Streamline Emoji: https://streamlinehq.com</desc><path d="M19.04 8.85986H13.6V29.9999h5.44V8.85986Z" fill="#6d4534" stroke-width="1"></path><path d="M5 8.16c-0.55228 0 -1.00852 -0.45087 -0.91976 -0.99598C4.55684 4.23698 7.09905 2 10.16 2c3.4 0 6.16 2.75 6.16 6.16H5Z" fill="#86d72f" stroke-width="1"></path><path d="M16.32 8.16h11.32c0.5523 0 1.0085 -0.45085 0.9201 -0.99602C28.0845 4.23008 25.5418 2 22.48 2c-3.4 0 -6.16 2.76 -6.16 6.16Z" fill="#86d72f" stroke-width="1"></path><path d="M15.6356 7.62438c0.4139 0.2628 0.9543 0.26261 1.3678 -0.00095 2.3832 -1.51912 5.573 -1.23689 7.6566 0.84667 2.1602 2.1693 2.376 5.5457 0.6473 7.9489 -0.3225 0.4483 -0.9639 0.4445 -1.3544 0.054l-6.9258 -6.9258c-0.3905 -0.39052 -1.0237 -0.39052 -1.4142 0L8.68709 16.473c-0.39052 0.3905 -1.03192 0.3943 -1.35507 -0.0536 -1.73816 -2.409 -1.52217 -5.7792 0.64797 -7.94931 2.08241 -2.07375 5.27721 -2.35565 7.65561 -0.84571Z" fill="#44911b" stroke-width="1"></path><path d="M15.55 11.93c0 1.1929 -0.9671 2.16 -2.16 2.16 -1.193 0 -2.16 -0.9671 -2.16 -2.16 0 -1.1929 0.967 -2.15998 2.16 -2.15998 1.1929 0 2.16 0.96708 2.16 2.15998Z" fill="#d3883e" stroke-width="1"></path><path d="M21.41 13.7c0 1.1929 -0.9671 2.16 -2.16 2.16 -1.193 0 -2.16 -0.9671 -2.16 -2.16 0 -1.1929 0.967 -2.16 2.16 -2.16 1.1929 0 2.16 0.9671 2.16 2.16Z" fill="#d3883e" stroke-width="1"></path></svg>